<?xml version="1.0" standalone="no"?>
<!DOCTYPE svg PUBLIC "-//W3C//DTD SVG 20010904//EN"
 "http://www.w3.org/TR/2001/REC-SVG-20010904/DTD/svg10.dtd">
<svg version="1.0" xmlns="http://www.w3.org/2000/svg"
 width="1280.000000pt" height="905.000000pt" viewBox="0 0 1280.000000 905.000000"
 preserveAspectRatio="xMidYMid meet">

<g transform="translate(0.000000,905.000000) scale(0.100000,-0.100000)"
fill="#000000" stroke="none">
<path d="M3400 7489 c-18 -33 -43 -58 -52 -53 -4 3 -5 -3 -1 -12 4 -12 3 -15
-6 -10 -6 4 -11 4 -10 -1 4 -20 -2 -27 -12 -13 -9 13 -10 12 -5 -2 3 -11 0
-18 -8 -18 -14 0 -60 -47 -141 -145 -27 -33 -52 -62 -55 -65 -28 -24 -258
-347 -296 -415 -6 -11 -37 -63 -68 -115 -269 -449 -458 -1003 -530 -1555 -57
-442 -47 -894 30 -1320 28 -151 65 -309 105 -440 24 -77 92 -283 104 -310 7
-16 29 -70 50 -120 44 -107 149 -324 200 -415 44 -78 171 -285 197 -320 10
-14 59 -79 107 -145 49 -66 107 -140 130 -164 22 -24 41 -47 41 -50 0 -4 10
-17 23 -29 23 -22 39 -29 34 -14 -6 18 19 9 26 -10 6 -17 5 -19 -6 -9 -8 6
-17 8 -20 4 -4 -3 11 -24 33 -45 22 -22 40 -43 40 -47 0 -4 9 -7 20 -8 16 -1
17 1 7 12 -6 7 -15 11 -19 8 -5 -2 -8 0 -8 6 0 17 22 24 31 10 6 -10 9 -10 9
-2 0 7 -9 17 -20 23 -11 6 -18 15 -15 21 9 13 -9 11 -25 -3 -12 -11 -12 -10
-1 4 14 19 6 42 -12 32 -7 -4 -9 -4 -5 1 7 7 -34 64 -82 116 -48 52 -204 263
-282 384 -272 417 -469 889 -574 1375 -70 322 -94 551 -94 895 0 320 18 510
81 840 13 73 74 313 94 375 66 201 162 458 195 519 5 9 32 63 61 121 125 255
329 574 483 759 20 23 33 48 29 53 -3 6 -1 8 4 5 6 -4 18 2 28 13 10 11 16 20
13 20 -3 0 12 18 34 40 23 23 37 44 32 51 -4 7 -2 10 7 7 19 -6 50 34 38 48
-6 7 -3 16 8 25 15 12 16 12 10 -3 -3 -10 -2 -18 3 -18 10 0 24 19 26 38 2 10
-1 11 -12 1 -8 -7 -14 -7 -14 -1 0 13 25 33 33 27 4 -3 5 -2 2 1 -2 4 2 19 11
35 8 16 12 29 10 29 -3 0 -10 -9 -16 -21z m-75 -135 c-10 -7 -22 -11 -26 -8
-8 5 -12 -9 -6 -22 1 -3 -6 -10 -15 -15 -10 -6 -18 -17 -18 -24 0 -8 -5 -15
-10 -15 -7 0 -7 6 -1 19 6 10 8 21 6 25 -3 3 -2 4 2 1 3 -3 15 9 25 26 10 16
23 27 28 24 6 -3 10 -1 10 5 0 6 5 8 12 4 8 -5 6 -11 -7 -20z m-5 -5658 c0 -3
-4 -8 -10 -11 -5 -3 -10 -1 -10 4 0 6 5 11 10 11 6 0 10 -2 10 -4z"/>
<path d="M3388 7258 c-113 -123 -130 -146 -122 -159 4 -7 3 -9 -2 -6 -14 8
-25 -1 -75 -68 -168 -222 -293 -416 -402 -626 -64 -124 -151 -315 -182 -399
-73 -202 -146 -435 -165 -530 -4 -19 -17 -80 -28 -135 -60 -298 -77 -474 -77
-810 0 -337 13 -472 75 -800 35 -182 110 -450 170 -605 12 -30 30 -78 40 -106
10 -28 22 -59 28 -70 6 -10 23 -48 39 -84 101 -233 258 -501 426 -730 109
-148 146 -192 157 -185 4 3 7 -3 6 -13 0 -9 5 -16 12 -14 8 1 11 -2 8 -7 -3
-4 13 -30 36 -57 58 -67 82 -87 86 -75 2 6 8 8 13 5 6 -4 6 -10 0 -18 -8 -9
-7 -13 4 -13 7 0 13 5 12 10 -1 5 4 12 12 15 8 2 11 0 7 -6 -3 -6 -2 -13 3
-16 5 -4 8 0 7 8 -1 8 -29 43 -62 78 -32 35 -75 83 -94 108 -19 25 -41 51 -48
59 -52 54 -254 349 -332 486 -253 440 -406 861 -494 1355 -66 377 -72 815 -17
1240 75 578 319 1208 658 1699 71 104 203 283 214 291 3 3 27 29 53 59 45 54
58 83 34 77 -7 -1 -10 -1 -5 1 4 3 4 9 1 15 -4 6 3 5 15 -1 24 -13 36 -9 51
19 8 16 8 18 -5 14 -8 -3 -13 -10 -10 -14 8 -13 -9 -20 -25 -9 -10 6 -11 9 -2
9 6 0 12 7 12 16 0 8 5 12 10 9 6 -4 10 -3 9 2 -5 19 14 41 29 36 13 -4 14 -3
3 5 -11 8 -11 10 0 15 8 3 9 6 3 6 -6 1 -45 -36 -86 -81z m-40 -70 c-2 -7 3
-12 10 -10 17 3 15 -3 -5 -19 -10 -8 -14 -9 -10 -2 4 6 3 14 -3 18 -6 4 -8 11
-5 16 9 13 15 11 13 -3z m17 -5320 c5 4 5 1 1 -6 -6 -10 -11 -10 -22 -1 -8 6
-14 14 -14 16 0 3 6 0 13 -6 8 -6 18 -7 22 -3z m50 -48 c-3 -4 4 -10 15 -13
11 -3 20 -11 20 -18 0 -10 -3 -10 -11 -2 -6 6 -18 9 -27 6 -10 -4 -13 -2 -8 5
4 7 2 12 -5 12 -7 0 -9 3 -6 7 4 3 -1 12 -11 20 -15 12 -13 12 10 2 15 -7 25
-15 23 -19z"/>
<path d="M3490 7320 c0 -5 5 -10 11 -10 5 0 7 5 4 10 -3 6 -8 10 -11 10 -2 0
-4 -4 -4 -10z"/>
<path d="M5281 5631 l-1104 -1106 200 -3 200 -2 912 912 911 912 0 198 c0 109
-3 197 -7 197 -5 -1 -505 -499 -1112 -1108z"/>
<path d="M6135 4970 c-3 -5 -15 -10 -25 -10 -10 0 -21 -9 -25 -20 -7 -22 10
-60 28 -60 8 0 6 4 -3 10 -13 9 -13 11 0 20 8 5 26 10 41 10 24 0 49 16 49 32
0 4 -9 8 -20 8 -11 0 -20 5 -20 10 0 6 -4 10 -9 10 -6 0 -13 -4 -16 -10z"/>
<path d="M6856 4643 c-10 -31 8 -73 39 -93 30 -18 30 -18 60 6 25 19 28 27 19
41 -6 10 -23 24 -37 31 -15 7 -27 17 -27 23 0 17 -48 10 -54 -8z"/>
<path d="M6218 4625 c-3 -3 -25 -9 -49 -14 -29 -6 53 -9 244 -10 227 -1 288 2
285 12 -4 9 -62 13 -239 15 -130 1 -238 0 -241 -3z"/>
<path d="M6172 4481 c14 -84 17 -90 33 -61 l14 25 1 -32 c0 -17 -6 -33 -12
-36 -7 -2 -10 -8 -6 -12 4 -4 16 -2 25 6 10 7 15 10 12 6 -4 -5 -3 -24 1 -43
9 -39 8 -40 -14 -18 -15 14 -16 14 -16 0 0 -9 5 -16 11 -16 5 0 8 -4 5 -9 -3
-5 4 -11 15 -14 15 -4 20 -11 15 -22 -3 -10 -2 -14 5 -9 6 3 9 15 6 25 -6 23
2 25 17 4 9 -11 46 -15 178 -16 93 -2 171 1 175 4 10 10 23 8 23 -4 0 -5 -4
-8 -8 -5 -4 3 -8 -12 -9 -32 l-1 -37 13 35 c8 24 14 30 18 20 3 -8 3 -1 0 15
-3 17 -11 33 -17 38 -6 4 1 6 15 3 23 -4 26 -1 23 20 -1 13 2 26 7 30 5 3 7
10 3 15 -3 5 1 21 10 34 17 27 21 65 7 65 -5 0 -12 13 -16 30 -4 16 -12 33
-18 37 -7 5 -127 9 -268 9 l-256 2 9 -57z m38 -11 c0 -11 -4 -20 -10 -20 -5 0
-10 9 -10 20 0 11 5 20 10 20 6 0 10 -9 10 -20z m100 -180 c0 -5 -2 -10 -4
-10 -3 0 -8 5 -11 10 -3 6 -1 10 4 10 6 0 11 -4 11 -10z"/>
<path d="M6080 4269 c0 -16 7 -19 38 -18 20 1 29 3 20 6 -10 2 -18 8 -18 13 0
4 -9 10 -20 13 -15 4 -20 0 -20 -14z"/>
<path d="M5960 4265 c0 -10 10 -15 31 -15 27 0 29 2 15 15 -8 8 -22 15 -30 15
-9 0 -16 -7 -16 -15z"/>
<path d="M6275 4240 c-3 -5 -1 -10 4 -10 6 0 11 5 11 10 0 6 -2 10 -4 10 -3 0
-8 -4 -11 -10z"/>
<path d="M6245 4209 c-4 -6 -4 -13 -1 -16 3 -4 6 -1 6 6 0 7 5 9 12 5 7 -4 8
-3 4 4 -9 15 -13 15 -21 1z"/>
<path d="M6665 4199 c-4 -6 -5 -12 -2 -15 2 -3 7 2 10 11 7 17 1 20 -8 4z"/>
<path d="M6277 4183 c-10 -10 -8 -23 4 -23 5 0 7 5 3 11 -4 8 1 9 16 4 15 -5
20 -4 16 4 -8 12 -29 15 -39 4z"/>
<path d="M3465 1721 c-3 -5 -2 -12 3 -15 5 -3 9 1 9 9 0 17 -3 19 -12 6z"/>
<path d="M3500 1720 c-12 -7 -10 -9 7 -7 12 0 19 5 17 9 -6 10 -6 10 -24 -2z"/>
<path d="M3517 1658 c20 -23 30 -24 12 -1 -12 15 -12 16 4 10 10 -4 16 -3 12
2 -3 6 -14 9 -25 8 -18 -1 -18 -2 -3 -19z"/>
<path d="M3346 1622 c-3 -5 1 -9 9 -9 8 0 12 4 9 9 -3 4 -7 8 -9 8 -2 0 -6 -4
-9 -8z"/>
</g>
</svg>
